<svg width="24" height="24" viewBox="0 0 24 24" fill="none" xmlns="http://www.w3.org/2000/svg">
<path d="M22.2649 2.428C21.9802 2.19116 21.6366 2.03595 21.2707 1.97889C20.9047 1.92184 20.5302 1.96508 20.1869 2.104L2.2659 9.339C1.88276 9.4967 1.55662 9.76716 1.33075 10.1145C1.10488 10.4619 0.989964 10.8697 1.00125 11.2839C1.01253 11.698 1.14947 12.099 1.39392 12.4335C1.63836 12.7681 1.97874 13.0204 2.3699 13.157L5.9949 14.418L8.0149 21.1C8.04259 21.1892 8.08265 21.274 8.1339 21.352C8.1419 21.364 8.1529 21.372 8.1609 21.385C8.21983 21.467 8.29099 21.5395 8.3719 21.6C8.39449 21.6177 8.41784 21.6344 8.4419 21.65C8.53662 21.7129 8.6415 21.7589 8.7519 21.786L8.7649 21.787L8.7709 21.79C8.83773 21.8034 8.90574 21.8101 8.9739 21.81L8.9919 21.807C9.09432 21.8053 9.19585 21.7878 9.2929 21.755C9.3159 21.747 9.3349 21.735 9.3569 21.725C9.4295 21.6952 9.49831 21.657 9.5619 21.611C9.61255 21.568 9.66322 21.525 9.7139 21.482L12.4159 18.499L16.4459 21.621C16.8006 21.8973 17.2373 22.0475 17.6869 22.048C18.1581 22.0475 18.6149 21.8849 18.9805 21.5876C19.3461 21.2902 19.5983 20.8762 19.6949 20.415L22.9579 4.398C23.0317 4.03766 23.0062 3.66403 22.8842 3.31705C22.7621 2.97007 22.5481 2.66278 22.2649 2.428ZM9.3699 14.736C9.23141 14.8742 9.13679 15.0502 9.0979 15.242L8.7879 16.746L8.0039 14.153L12.0689 12.036L9.3699 14.736ZM17.6719 20.04L12.9089 16.35C12.7096 16.1962 12.4597 16.1232 12.2089 16.1454C11.9582 16.1676 11.725 16.2835 11.5559 16.47L10.6899 17.425L10.9959 15.938L18.0789 8.855C18.247 8.68591 18.3491 8.46235 18.3669 8.22462C18.3846 7.98689 18.3169 7.75063 18.1759 7.55843C18.0348 7.36623 17.8297 7.23074 17.5976 7.17639C17.3655 7.12204 17.1216 7.1524 16.9099 7.262L6.7449 12.554L3.0199 11.191L20.9989 4L17.6719 20.04Z" fill="black"/>
</svg>
