<svg width="24" height="24" viewBox="0 0 24 24" fill="none" xmlns="http://www.w3.org/2000/svg">
<path d="M22.265 2.42799C21.9803 2.19115 21.6367 2.03594 21.2708 1.97889C20.9048 1.92183 20.5303 1.96507 20.187 2.10399L2.266 9.33899C1.88285 9.49669 1.55671 9.76716 1.33084 10.1145C1.10497 10.4619 0.990056 10.8697 1.00134 11.2839C1.01262 11.698 1.14957 12.099 1.39401 12.4335C1.63845 12.7681 1.97883 13.0204 2.37 13.157L5.995 14.418L8.015 21.1C8.04268 21.1891 8.08274 21.274 8.134 21.352C8.14199 21.364 8.153 21.372 8.161 21.385C8.21993 21.467 8.29109 21.5395 8.37199 21.6C8.39458 21.6177 8.41794 21.6344 8.442 21.65C8.53672 21.7129 8.64159 21.7589 8.752 21.786L8.765 21.787L8.771 21.79C8.83783 21.8034 8.90583 21.8101 8.974 21.81L8.99199 21.807C9.09441 21.8053 9.19594 21.7877 9.293 21.755C9.316 21.747 9.335 21.735 9.357 21.725C9.42959 21.6952 9.49841 21.657 9.562 21.611C9.61265 21.568 9.66331 21.525 9.71399 21.482L12.416 18.499L16.446 21.621C16.8007 21.8973 17.2374 22.0475 17.687 22.048C18.1582 22.0474 18.615 21.8849 18.9806 21.5876C19.3462 21.2902 19.5984 20.8762 19.695 20.415L22.958 4.39799C23.0318 4.03765 23.0063 3.66403 22.8842 3.31705C22.7622 2.97007 22.5481 2.66277 22.265 2.42799ZM9.37 14.736C9.2315 14.8742 9.13688 15.0502 9.09799 15.242L8.788 16.746L8.00399 14.153L12.069 12.036L9.37 14.736ZM17.672 20.04L12.909 16.35C12.7097 16.1962 12.4598 16.1231 12.209 16.1454C11.9583 16.1676 11.7251 16.2835 11.556 16.47L10.69 17.425L10.996 15.938L18.079 8.85499C18.2471 8.68591 18.3492 8.46235 18.3669 8.22462C18.3847 7.98688 18.317 7.75062 18.1759 7.55842C18.0349 7.36622 17.8298 7.23074 17.5977 7.17638C17.3656 7.12203 17.1217 7.15239 16.91 7.26199L6.745 12.554L3.02 11.191L20.999 3.99999L17.672 20.04Z" fill="#F8F8F8"/>
</svg>
